<svg xmlns="http://www.w3.org/2000/svg" width="512" height="512" viewBox="0 0 512 512" role="img" aria-label="Cuaderno de Ruta">
  <defs>
    <linearGradient id="greenMain" x1="16%" y1="8%" x2="80%" y2="88%">
      <stop offset="0%" stop-color="#3F9B6C"/>
      <stop offset="100%" stop-color="#1E5A3D"/>
    </linearGradient>
    <linearGradient id="greenAccent" x1="56%" y1="2%" x2="100%" y2="86%">
      <stop offset="0%" stop-color="#4AAF78"/>
      <stop offset="100%" stop-color="#2A6F4A"/>
    </linearGradient>
    <linearGradient id="redBase" x1="20%" y1="42%" x2="92%" y2="100%">
      <stop offset="0%" stop-color="#BE3F52"/>
      <stop offset="100%" stop-color="#7B1F2D"/>
    </linearGradient>
    <clipPath id="diamond">
      <path d="M256 88 L424 256 L256 424 L88 256 Z"/>
    </clipPath>
  </defs>

  <rect width="512" height="512" fill="#FFFFFF"/>

  <g clip-path="url(#diamond)">
    <path fill="url(#greenMain)" d="M88 256 L256 88 L256 248 L170 304 Z"/>
    <path fill="url(#greenAccent)" d="M256 88 L424 256 L342 304 L256 248 Z"/>
    <path fill="url(#redBase)" d="M170 304 L342 304 L424 256 L256 424 Z"/>

    <!-- Pieza central refinada: cuña redondeada y legible en 32/64 -->
    <path d="M258 170 C272 198 280 224 280 252 C280 289 262 322 230 342 L202 324 C231 307 248 283 248 252 C248 228 241 208 228 188 Z" fill="#FFFFFF" opacity="0.98"/>

    <!-- Diagonal de identidad -->
    <path d="M148 338 L366 188" stroke="#FFFFFF" stroke-width="16" stroke-linecap="round" opacity="0.92"/>
  </g>

  <path d="M256 96 L256 246" stroke="#FFFFFF" stroke-width="6" stroke-linecap="round"/>
</svg>
